<svg width="114" height="121" viewBox="0 0 114 121" fill="none" xmlns="http://www.w3.org/2000/svg">
<rect x="0.837158" y="0.050293" width="112.744" height="120" fill="white"/>
<path fill-rule="evenodd" clip-rule="evenodd" d="M78.9801 10.2222C80.448 8.65967 82.8262 8.65967 84.2941 10.2222L102.896 30.021C104.364 31.583 104.364 34.1157 102.896 35.6777L84.2941 55.4771C83.9694 55.8231 83.5989 56.0927 83.2043 56.2855C82.6187 56.5707 81.9784 56.6879 81.3489 56.6371C81.061 56.6139 80.7765 56.5555 80.4995 56.4623C79.9433 56.2751 79.4206 55.9463 78.9801 55.4771L60.3785 35.6777C58.9101 34.1157 58.9101 31.583 60.3785 30.021L78.9801 10.2222ZM64.7255 32.8497L81.6371 14.8494L98.5487 32.8497L81.6371 50.8494L64.7255 32.8497Z" fill="url(#paint0_linear)"/>
<path d="M84.2941 10.2222L83.9297 10.5645L83.9297 10.5645L84.2941 10.2222ZM78.9801 10.2222L79.3445 10.5645L79.3445 10.5645L78.9801 10.2222ZM102.896 30.021L102.531 30.3634L102.531 30.3635L102.896 30.021ZM102.896 35.6777L102.531 35.3353L102.531 35.3354L102.896 35.6777ZM84.2941 55.4771L83.9297 55.1347L83.9295 55.1349L84.2941 55.4771ZM83.2043 56.2855L83.4232 56.735L83.4238 56.7347L83.2043 56.2855ZM81.3489 56.6371L81.3891 56.1387L81.389 56.1387L81.3489 56.6371ZM80.4995 56.4623L80.34 56.9362L80.3401 56.9362L80.4995 56.4623ZM78.9801 55.4771L79.3447 55.1349L79.3445 55.1347L78.9801 55.4771ZM60.3785 35.6777L60.7429 35.3354L60.7428 35.3353L60.3785 35.6777ZM60.3785 30.021L60.7428 30.3635L60.7428 30.3634L60.3785 30.021ZM81.6371 14.8494L82.0015 14.507L81.6371 14.1191L81.2727 14.507L81.6371 14.8494ZM64.7255 32.8497L64.3611 32.5073L64.0394 32.8497L64.3611 33.1921L64.7255 32.8497ZM98.5487 32.8497L98.9131 33.1921L99.2348 32.8497L98.9132 32.5073L98.5487 32.8497ZM81.6371 50.8494L81.2727 51.1917L81.6371 51.5796L82.0015 51.1917L81.6371 50.8494ZM84.6585 9.87982C82.9931 8.10712 80.2811 8.10712 78.6157 9.87982L79.3445 10.5645C80.615 9.21222 82.6593 9.21222 83.9297 10.5645L84.6585 9.87982ZM103.26 29.6786L84.6585 9.8798L83.9297 10.5645L102.531 30.3634L103.26 29.6786ZM103.26 36.0202C104.909 34.2657 104.909 31.433 103.26 29.6786L102.531 30.3635C103.819 31.733 103.819 33.9657 102.531 35.3353L103.26 36.0202ZM84.6585 55.8195L103.26 36.0201L102.531 35.3354L83.9297 55.1347L84.6585 55.8195ZM83.4238 56.7347C83.8729 56.5153 84.2926 56.2094 84.6587 55.8192L83.9295 55.1349C83.6463 55.4368 83.3249 55.6701 82.9848 55.8362L83.4238 56.7347ZM81.3086 57.1355C82.0269 57.1934 82.7568 57.0596 83.4232 56.735L82.9853 55.836C82.4807 56.0818 81.9298 56.1824 81.3891 56.1387L81.3086 57.1355ZM80.3401 56.9362C80.6554 57.0423 80.98 57.109 81.3087 57.1355L81.389 56.1387C81.142 56.1188 80.8976 56.0687 80.659 55.9884L80.3401 56.9362ZM78.6156 55.8193C79.112 56.3482 79.7051 56.7225 80.34 56.9362L80.659 55.9884C80.1816 55.8277 79.7291 55.5444 79.3447 55.1349L78.6156 55.8193ZM60.014 36.0201L78.6157 55.8195L79.3445 55.1347L60.7429 35.3354L60.014 36.0201ZM60.0141 29.6786C58.3649 31.433 58.3649 34.2657 60.0141 36.0202L60.7428 35.3353C59.4554 33.9657 59.4554 31.733 60.7428 30.3635L60.0141 29.6786ZM78.6157 9.8798L60.0141 29.6786L60.7428 30.3634L79.3445 10.5645L78.6157 9.8798ZM81.2727 14.507L64.3611 32.5073L65.0899 33.192L82.0015 15.1917L81.2727 14.507ZM98.9132 32.5073L82.0015 14.507L81.2727 15.1917L98.1843 33.192L98.9132 32.5073ZM82.0015 51.1917L98.9131 33.1921L98.1844 32.5073L81.2727 50.507L82.0015 51.1917ZM64.3611 33.1921L81.2727 51.1917L82.0015 50.507L65.0899 32.5073L64.3611 33.1921Z" fill="white"/>
<path fill-rule="evenodd" clip-rule="evenodd" d="M19.6278 26.8491C19.6278 24.6401 21.3105 22.8491 23.3859 22.8491H49.6929C51.7684 22.8491 53.4511 24.6401 53.4511 26.8491V54.8491C53.4511 57.0583 51.7684 58.8491 49.6929 58.8491H23.3859C21.3105 58.8491 19.6278 57.0583 19.6278 54.8491V26.8491ZM24.3255 53.8491V27.8491H48.7534V53.8491H24.3255Z" fill="#404151"/>
<path d="M24.3255 53.8491H23.8255V54.3491H24.3255V53.8491ZM24.3255 27.8491V27.3491H23.8255V27.8491H24.3255ZM48.7534 27.8491H49.2534V27.3491H48.7534V27.8491ZM48.7534 53.8491V54.3491H49.2534V53.8491H48.7534ZM20.1278 26.8491C20.1278 24.8864 21.6156 23.3491 23.3859 23.3491V22.3491C21.0055 22.3491 19.1278 24.3938 19.1278 26.8491H20.1278ZM23.3859 23.3491H49.6929V22.3491H23.3859V23.3491ZM49.6929 23.3491C51.4633 23.3491 52.9511 24.8864 52.9511 26.8491H53.9511C53.9511 24.3938 52.0734 22.3491 49.6929 22.3491V23.3491ZM52.9511 26.8491V54.8491H53.9511V26.8491H52.9511ZM52.9511 54.8491C52.9511 56.812 51.4633 58.3491 49.6929 58.3491V59.3491C52.0734 59.3491 53.9511 57.3046 53.9511 54.8491H52.9511ZM49.6929 58.3491H23.3859V59.3491H49.6929V58.3491ZM23.3859 58.3491C21.6156 58.3491 20.1278 56.812 20.1278 54.8491H19.1278C19.1278 57.3046 21.0055 59.3491 23.3859 59.3491V58.3491ZM20.1278 54.8491V26.8491H19.1278V54.8491H20.1278ZM24.8255 53.8491V27.8491H23.8255V53.8491H24.8255ZM24.3255 28.3491H48.7534V27.3491H24.3255V28.3491ZM48.2534 27.8491V53.8491H49.2534V27.8491H48.2534ZM48.7534 53.3491H24.3255V54.3491H48.7534V53.3491Z" fill="white"/>
<path fill-rule="evenodd" clip-rule="evenodd" d="M57.2092 66.8491C57.2092 64.6403 58.8921 62.8491 60.9674 62.8491H87.2743C89.3496 62.8491 91.0325 64.6403 91.0325 66.8491V94.8491C91.0325 97.0583 89.3496 98.8491 87.2743 98.8491H60.9674C58.8921 98.8491 57.2092 97.0583 57.2092 94.8491V66.8491ZM61.9069 93.8491V67.8491H86.3348V93.8491H61.9069Z" fill="#404151"/>
<path d="M61.9069 93.8491H61.4069V94.3491H61.9069V93.8491ZM61.9069 67.8491V67.3491H61.4069V67.8491H61.9069ZM86.3348 67.8491H86.8348V67.3491H86.3348V67.8491ZM86.3348 93.8491V94.3491H86.8348V93.8491H86.3348ZM57.7092 66.8491C57.7092 64.8866 59.1972 63.3491 60.9674 63.3491V62.3491C58.5871 62.3491 56.7092 64.394 56.7092 66.8491H57.7092ZM60.9674 63.3491H87.2743V62.3491H60.9674V63.3491ZM87.2743 63.3491C89.0445 63.3491 90.5325 64.8866 90.5325 66.8491H91.5325C91.5325 64.394 89.6547 62.3491 87.2743 62.3491V63.3491ZM90.5325 66.8491V94.8491H91.5325V66.8491H90.5325ZM90.5325 94.8491C90.5325 96.812 89.0446 98.3491 87.2743 98.3491V99.3491C89.6546 99.3491 91.5325 97.3047 91.5325 94.8491H90.5325ZM87.2743 98.3491H60.9674V99.3491H87.2743V98.3491ZM60.9674 98.3491C59.1972 98.3491 57.7092 96.812 57.7092 94.8491H56.7092C56.7092 97.3047 58.5871 99.3491 60.9674 99.3491V98.3491ZM57.7092 94.8491V66.8491H56.7092V94.8491H57.7092ZM62.4069 93.8491V67.8491H61.4069V93.8491H62.4069ZM61.9069 68.3491H86.3348V67.3491H61.9069V68.3491ZM85.8348 67.8491V93.8491H86.8348V67.8491H85.8348ZM86.3348 93.3491H61.9069V94.3491H86.3348V93.3491Z" fill="white"/>
<path fill-rule="evenodd" clip-rule="evenodd" d="M19.6278 66.8491C19.6278 64.6403 21.3105 62.8491 23.3859 62.8491H49.6929C51.7684 62.8491 53.4511 64.6403 53.4511 66.8491V94.8491C53.4511 97.0583 51.7684 98.8491 49.6929 98.8491H23.3859C21.3105 98.8491 19.6278 97.0583 19.6278 94.8491V66.8491ZM24.3255 93.8491V67.8491H48.7534V93.8491H24.3255Z" fill="#404151"/>
<path d="M24.3255 93.8491H23.8255V94.3491H24.3255V93.8491ZM24.3255 67.8491V67.3491H23.8255V67.8491H24.3255ZM48.7534 67.8491H49.2534V67.3491H48.7534V67.8491ZM48.7534 93.8491V94.3491H49.2534V93.8491H48.7534ZM20.1278 66.8491C20.1278 64.8866 21.6156 63.3491 23.3859 63.3491V62.3491C21.0055 62.3491 19.1278 64.394 19.1278 66.8491H20.1278ZM23.3859 63.3491H49.6929V62.3491H23.3859V63.3491ZM49.6929 63.3491C51.4633 63.3491 52.9511 64.8866 52.9511 66.8491H53.9511C53.9511 64.394 52.0734 62.3491 49.6929 62.3491V63.3491ZM52.9511 66.8491V94.8491H53.9511V66.8491H52.9511ZM52.9511 94.8491C52.9511 96.812 51.4633 98.3491 49.6929 98.3491V99.3491C52.0734 99.3491 53.9511 97.3046 53.9511 94.8491H52.9511ZM49.6929 98.3491H23.3859V99.3491H49.6929V98.3491ZM23.3859 98.3491C21.6156 98.3491 20.1278 96.812 20.1278 94.8491H19.1278C19.1278 97.3046 21.0055 99.3491 23.3859 99.3491V98.3491ZM20.1278 94.8491V66.8491H19.1278V94.8491H20.1278ZM24.8255 93.8491V67.8491H23.8255V93.8491H24.8255ZM24.3255 68.3491H48.7534V67.3491H24.3255V68.3491ZM48.2534 67.8491V93.8491H49.2534V67.8491H48.2534ZM48.7534 93.3491H24.3255V94.3491H48.7534V93.3491Z" fill="white"/>
<defs>
<linearGradient id="paint0_linear" x1="81.2256" y1="2.4712" x2="50.4103" y2="31.7484" gradientUnits="userSpaceOnUse">
<stop stop-color="#FFB500"/>
<stop offset="0.502868" stop-color="#FF8900"/>
<stop offset="1" stop-color="#FF7878"/>
</linearGradient>
</defs>
</svg>
