<svg width="114" height="121" viewBox="0 0 114 121" fill="none" xmlns="http://www.w3.org/2000/svg">
<rect x="0.823242" y="0.050293" width="112.744" height="120" fill="white"/>
<path d="M90.6594 47.8122C88.6448 39.2509 81.3354 33.1318 72.9505 33.1318C69.8999 33.1318 66.9311 33.9318 64.279 35.4571C60.1245 30.1767 53.9262 27.0669 47.4135 27.0669C41.9406 27.0669 36.697 29.2181 32.6486 33.1242C28.9399 36.7028 26.5086 41.4791 25.7194 46.6885C18.4089 48.3514 13.0409 55.2928 13.0409 63.3588C13.0409 72.7579 20.2281 80.4045 29.0625 80.4045H39.4849V88.7864C39.4849 90.9168 41.1139 92.6502 43.1164 92.6502H70.0553C72.0576 92.6502 73.6868 90.9168 73.6868 88.7864V80.4045H84.1092C92.9454 80.4045 100.134 72.7579 100.134 63.3588C100.134 56.684 96.3615 50.5528 90.6594 47.8122Z" fill="#404151"/>
<rect x="39.3442" y="44.0503" width="34.7628" height="49" fill="url(#paint0_linear)"/>
<path d="M70.4069 88.7861C70.4069 88.9847 70.2428 89.1591 70.0553 89.1591H43.1166C42.9292 89.1591 42.7649 88.9849 42.7649 88.7861V78.6627C42.7649 78.6613 42.7651 78.6601 42.7651 78.6588V67.363C42.7651 67.1574 42.9229 66.9902 43.1167 66.9902H45.3878H45.388H67.7803H67.7805H70.0553C70.2459 66.9902 70.4069 67.1609 70.4069 67.363V78.6588V88.7861Z" fill="white"/>
<path d="M66.1404 60.8486V63.4994H47.028V60.8486C47.028 55.2428 51.3163 50.6821 56.5874 50.6821C61.855 50.6823 66.1404 55.2428 66.1404 60.8486Z" fill="white"/>
<path d="M84.1091 76.9134H73.6867V67.3631C73.6867 65.2327 72.0592 63.4994 70.0591 63.4994H70.0552H69.4204V60.8487C69.4204 53.3178 63.6636 47.1913 56.5875 47.1913C49.5078 47.1913 43.7481 53.318 43.7481 60.8487V63.4994H43.1169H43.1167C41.1142 63.4994 39.4852 65.2329 39.4852 67.3633V76.9134H29.0628C22.0369 76.9134 16.321 70.8327 16.321 63.3586C16.321 56.5832 21.0846 50.8055 27.4014 49.9194C28.1543 49.8139 28.7405 49.1718 28.8183 48.3679C29.8012 38.2144 37.7954 30.5579 47.4138 30.5579C53.382 30.5579 59.0401 33.6271 62.549 38.7683C63.0623 39.521 64.0408 39.7128 64.7725 39.2039C67.2016 37.5152 70.0296 36.6227 72.9506 36.6227C80.074 36.6227 86.2505 42.0026 87.6371 49.415C87.747 50.0016 88.1315 50.4877 88.6559 50.7029C93.5596 52.7145 96.8544 57.8003 96.8544 63.3588C96.8542 70.8329 91.1367 76.9134 84.1091 76.9134Z" fill="white"/>
<path fill-rule="evenodd" clip-rule="evenodd" d="M50.0779 78.0715C50.0779 74.1807 53.0532 71.0154 56.7104 71.0154C60.3658 71.0154 63.3397 74.1809 63.3399 78.0715C63.3399 81.9619 60.366 85.127 56.7104 85.127C53.0532 85.127 50.0779 81.9619 50.0779 78.0715ZM53.3577 78.0715C53.3577 80.0371 54.8617 81.6361 56.7104 81.6361C58.5573 81.6361 60.0599 80.0371 60.06 78.0715C60.06 76.1055 58.5575 74.5063 56.7104 74.5063C54.8617 74.5063 53.3577 76.1055 53.3577 78.0715Z" fill="#F7931E"/>
<defs>
<linearGradient id="paint0_linear" x1="56.4057" y1="37.2775" x2="26.3159" y2="58.8645" gradientUnits="userSpaceOnUse">
<stop stop-color="#FFB500"/>
<stop offset="0.502868" stop-color="#FF8900"/>
<stop offset="1" stop-color="#FF7878"/>
</linearGradient>
</defs>
</svg>
