<svg width="114" height="121" viewBox="0 0 114 121" fill="none" xmlns="http://www.w3.org/2000/svg">
<rect x="0.553467" y="0.050293" width="112.744" height="120" fill="white"/>
<path fill-rule="evenodd" clip-rule="evenodd" d="M109.058 84.2223L111.772 84.7763C112.657 84.9583 113.298 85.7823 113.298 86.7403V92.2803C113.298 93.2663 112.621 94.1063 111.706 94.2563L108.859 94.7223C107.576 94.9323 106.542 95.7783 106.026 97.0423C105.507 98.3083 105.627 99.6903 106.354 100.832L107.903 103.266C108.408 104.06 108.312 105.124 107.675 105.802L103.996 109.72C103.342 110.42 102.305 110.506 101.555 109.92L99.9224 108.644C98.8682 107.822 97.5228 107.648 96.3127 108.18C95.1082 108.712 94.2682 109.848 94.0709 111.224L93.7628 113.354C93.6218 114.33 92.8326 115.05 91.9063 115.05H86.7012C85.7993 115.05 85.0251 114.368 84.856 113.43L84.3355 110.542C84.0912 109.188 83.2588 108.122 82.0505 107.618C80.8479 107.11 79.5533 107.294 78.5085 108.108L76.186 109.922C75.4343 110.504 74.399 110.42 73.745 109.722L70.0658 105.804C69.4288 105.126 69.333 104.06 69.8385 103.268L71.3868 100.834C72.114 99.6903 72.2343 98.3103 71.7157 97.0443C71.197 95.7803 70.1654 94.9343 68.882 94.7243L66.0352 94.2583C65.1182 94.1083 64.4418 93.2683 64.4418 92.2823V86.7423C64.4418 85.7823 65.0825 84.9583 65.9657 84.7783L68.6791 84.2243C69.9512 83.9643 70.9527 83.0783 71.4263 81.7923C71.9017 80.5083 71.7326 79.1343 70.9659 78.0223L69.2616 75.5503C68.7129 74.7523 68.7918 73.6503 69.4495 72.9523L73.1306 69.0363C73.7676 68.3583 74.7691 68.2603 75.5133 68.7943L78.4671 70.9223C79.5175 71.6783 80.7878 71.8203 81.9622 71.3003C83.1329 70.7843 83.9428 69.7283 84.1814 68.4043L84.8541 64.6743C85.0232 63.7323 85.7993 63.0503 86.6994 63.0503H91.9044C92.8308 63.0503 93.62 63.7703 93.759 64.7443L94.1968 67.7743C94.3941 69.1403 95.189 70.2403 96.3766 70.7903C97.5679 71.3423 98.8645 71.2163 99.9374 70.4403L102.224 68.7923C102.968 68.2583 103.97 68.3563 104.607 69.0343L108.288 72.9503C108.946 73.6483 109.025 74.7523 108.476 75.5483L106.772 78.0203C106.005 79.1323 105.836 80.5063 106.311 81.7903C106.785 83.0763 107.786 83.9623 109.058 84.2223ZM108.286 90.7723L109.539 90.5663V88.3943L108.352 88.1523C105.825 87.6343 103.754 85.8023 102.814 83.2543C101.875 80.7023 102.22 77.8623 103.743 75.6543L104.492 74.5663L103.049 73.0303L102.048 73.7523C99.9186 75.2883 97.2372 75.5523 94.8789 74.4563C92.5207 73.3623 90.8784 71.0923 90.4876 68.3843L90.294 67.0503H88.2533L87.8757 69.1583C87.4002 71.7883 85.7279 73.9703 83.4035 74.9963C81.0809 76.0203 78.4446 75.7383 76.3626 74.2343L74.6921 73.0303L73.249 74.5663L73.9987 75.6543C75.5189 77.8643 75.8665 80.7043 74.927 83.2543C73.9875 85.8023 71.9186 87.6343 69.3894 88.1523L68.1999 88.3943V90.5663L69.4533 90.7703C71.9956 91.1863 74.1303 92.9343 75.1581 95.4443C76.186 97.9543 75.9398 100.806 74.4967 103.074L73.8183 104.14L75.2615 105.676L76.2837 104.878C78.3582 103.262 81.0264 102.89 83.4241 103.89C85.8181 104.89 87.5393 107.092 88.026 109.784L88.2533 111.05H90.294L90.356 110.614C90.7563 107.848 92.4437 105.556 94.8752 104.484C97.3067 103.416 100.022 103.764 102.145 105.418L102.478 105.678L103.921 104.142L103.243 103.076C101.8 100.81 101.552 97.9583 102.581 95.4463C103.609 92.9363 105.742 91.1883 108.286 90.7723Z" fill="url(#paint0_linear)"/>
<path fill-rule="evenodd" clip-rule="evenodd" d="M79.4744 89.0503C79.4744 83.5363 83.6891 79.0503 88.8697 79.0503C94.0503 79.0503 98.2651 83.5363 98.2651 89.0503C98.2651 94.5643 94.0503 99.0503 88.8697 99.0503C83.6891 99.0503 79.4744 94.5643 79.4744 89.0503ZM83.2325 89.0503C83.2325 92.3583 85.7617 95.0503 88.8697 95.0503C91.9777 95.0503 94.5069 92.3583 94.5069 89.0503C94.5069 85.7423 91.9777 83.0503 88.8697 83.0503C85.7617 83.0503 83.2325 85.7423 83.2325 89.0503Z" fill="url(#paint1_linear)"/>
<path fill-rule="evenodd" clip-rule="evenodd" d="M56.5553 57.5103C58.1018 60.7843 59.6953 63.0243 60.1275 63.6083C60.1447 63.6313 60.1607 63.6526 60.1749 63.6716C60.2164 63.7271 60.2435 63.7633 60.2477 63.7663L60.6837 64.3223V72.3603C60.6837 75.7583 58.9418 78.8843 56.1382 80.5143L39.3713 90.2463C35.1321 92.7063 32.4976 97.4323 32.4976 102.574V107.05H53.1674C54.2065 107.05 55.0464 107.944 55.0464 109.05C55.0464 110.156 54.2065 111.05 53.1674 111.05H32.4976H28.7395H2.4325V103.456C2.4325 97.6523 5.40706 92.3183 10.1987 89.5383L22.6964 81.1923C24.0907 80.3803 24.8968 78.9363 24.8968 77.3623V71.8763C23.4123 70.2263 19.5978 65.5263 18.0494 59.3063C16.4936 57.9463 15.586 55.9343 15.586 53.7763V46.8683C15.586 45.2503 16.2474 43.6223 17.4651 42.2083V33.0503C17.4782 32.7603 18.6132 15.0503 38.1348 15.0503C42.4454 15.0503 46.2393 15.9483 49.4619 17.7203C49.7381 15.0723 50.6438 11.3843 53.3403 8.11029C57.1999 3.42629 63.4628 1.05029 71.9581 1.05029C80.4534 1.05029 86.7163 3.42629 90.5759 8.11229C95.0255 13.5143 94.614 20.0623 94.5069 21.1623V31.8003C95.7114 33.2563 96.386 35.1243 96.386 37.0503V45.0503C96.386 48.5623 94.2476 51.6243 91.0645 52.6683C90.0667 52.9903 89.02 52.4023 88.7156 51.3483C88.4093 50.2943 88.9655 49.1723 89.9558 48.8483C91.5549 48.3243 92.6278 46.7963 92.6278 45.0503V37.0503C92.6278 35.9283 92.1806 34.8803 91.3689 34.1023L90.7488 33.5063L90.7657 20.7883C90.7713 20.7403 91.3745 15.1083 87.716 10.7063C84.5986 6.95229 79.2958 5.05029 71.9581 5.05029C64.594 5.05029 59.28 6.96629 56.1664 10.7463C53.1336 14.4303 53.0509 18.8583 53.1166 20.3003L53.1674 20.3423V21.0503V33.5063L52.5473 34.1003C51.7355 34.8803 51.2883 35.9283 51.2883 37.0503V45.0503C51.2883 46.4023 51.9385 47.6543 53.0283 48.4003L53.671 48.8423L53.8081 49.4883L53.8401 49.6343C53.842 49.6483 53.8476 49.6603 53.8495 49.6743C53.9923 50.3283 54.1558 50.9623 54.3324 51.5823L54.4677 52.0543C54.6406 52.6363 54.8172 53.2043 55.0107 53.7483C55.1179 54.0563 55.2174 54.3243 55.317 54.5883C55.3527 54.6843 55.3884 54.7783 55.4241 54.8723C55.5294 55.1463 55.6346 55.4083 55.7398 55.6623L55.8338 55.8883C56.0367 56.3683 56.2378 56.8323 56.4426 57.2703C56.4473 57.2793 56.4515 57.2888 56.4557 57.2983C56.46 57.3078 56.4642 57.3173 56.4689 57.3263L56.5553 57.5103ZM54.338 77.0003C55.9334 76.0723 56.9255 74.2963 56.9255 72.3603H56.9274V65.7443C56.5779 65.2583 56.0405 64.4603 55.4204 63.4423C55.4107 63.4246 55.3999 63.4068 55.3897 63.3899C55.3861 63.3839 55.3825 63.378 55.379 63.3723C55.0859 62.8903 54.7777 62.3543 54.4564 61.7703L54.338 61.5483C54.0411 61.0023 53.7424 60.4183 53.438 59.7943C53.4023 59.7223 53.3684 59.6643 53.3327 59.5903L53.1918 59.2983C53.1749 59.2623 53.1584 59.2238 53.142 59.1853C53.1256 59.1468 53.1091 59.1083 53.0922 59.0723C52.9137 58.6863 52.7389 58.2863 52.5623 57.8763C52.5414 57.8285 52.5204 57.7826 52.4996 57.737C52.4681 57.668 52.4369 57.5997 52.4064 57.5263L52.2936 57.2543C52.2776 57.2153 52.2621 57.1733 52.2466 57.1313C52.2311 57.0893 52.2156 57.0473 52.1997 57.0083C52.0305 56.5923 51.8689 56.1703 51.7092 55.7343C51.6831 55.6629 51.6561 55.5949 51.6291 55.5268C51.5979 55.448 51.5666 55.369 51.5363 55.2843C51.3973 54.8883 51.277 54.5243 51.1643 54.1703C51.1097 54.0042 51.059 53.8368 51.0078 53.668C50.9974 53.6335 50.9869 53.5989 50.9764 53.5643C50.9444 53.4643 50.9125 53.3603 50.8824 53.2603L50.7265 52.7163C50.6062 52.2963 50.4935 51.8603 50.3845 51.4183C50.3786 51.3959 50.3723 51.3739 50.366 51.3518C50.3582 51.3245 50.3504 51.297 50.3431 51.2683C49.6122 50.6443 49.0447 49.8723 48.5843 49.0343C47.9267 47.8363 47.5302 46.4823 47.5302 45.0503V37.0503C47.5302 35.1243 48.2048 33.2563 49.4092 31.8003V22.3383C46.4196 20.1563 42.6333 19.0503 38.1348 19.0503C22.2304 19.0503 21.2551 32.5923 21.2194 33.1683L21.2232 43.9263L20.605 44.5203C19.8026 45.2923 19.3441 46.1503 19.3441 46.8683V53.7763C19.3441 54.8503 19.8609 55.8483 20.7271 56.4443L21.3698 56.8843L21.5408 57.6763C23.0083 64.4763 28.0085 69.5403 28.0592 69.5883L28.6512 70.1823L28.653 77.3623C28.653 80.4023 27.0972 83.1903 24.5924 84.6443L12.0947 92.9903C8.41545 95.1283 6.19063 99.1163 6.19063 103.456V107.05H28.7395V102.572C28.7395 95.9643 32.1237 89.8963 37.573 86.7323L48.1465 80.5943L49.366 79.8863L54.338 77.0003Z" fill="#404151"/>
<defs>
<linearGradient id="paint0_linear" x1="88.4201" y1="55.8628" x2="54.7551" y2="87.8478" gradientUnits="userSpaceOnUse">
<stop stop-color="#FFB500"/>
<stop offset="0.502868" stop-color="#FF8900"/>
<stop offset="1" stop-color="#FF7878"/>
</linearGradient>
<linearGradient id="paint1_linear" x1="88.6968" y1="76.2859" x2="75.7487" y2="88.5878" gradientUnits="userSpaceOnUse">
<stop stop-color="#FFB500"/>
<stop offset="0.502868" stop-color="#FF8900"/>
<stop offset="1" stop-color="#FF7878"/>
</linearGradient>
</defs>
</svg>
