<svg width="113" height="121" viewBox="0 0 113 121" fill="none" xmlns="http://www.w3.org/2000/svg">
<rect x="0.181396" y="0.050293" width="112.744" height="120" fill="white"/>
<path fill-rule="evenodd" clip-rule="evenodd" d="M96.4113 77.8324V72.8919C96.4113 69.7801 94.2147 67.1195 91.4108 66.8348C89.996 66.6888 88.6078 67.1224 87.5031 68.0223C86.6507 66.2635 85.0387 64.994 83.1504 64.8021C81.7384 64.658 80.3474 65.0902 79.2418 65.9901C78.3904 64.2308 76.7774 62.9613 74.8891 62.7699C73.7459 62.6527 72.6086 62.9168 71.6287 63.5042V50.5946C71.6287 47.4823 69.4327 44.8216 66.6287 44.5365C65.0681 44.3812 63.5156 44.9271 62.3632 46.0418C61.2104 47.1571 60.5493 48.7479 60.5493 50.4051V78.9759L56.2122 75.1488C53.9253 73.1312 50.6351 73.179 48.5592 75.2601C47.4031 76.4193 46.7646 77.9818 46.7609 79.6605C46.7568 81.3148 47.4004 82.9173 48.467 83.9935L61.5705 98.9447C61.815 99.223 61.9985 99.5628 62.1017 99.9281L63.4262 104.598C64.09 106.937 66.0778 108.509 68.3734 108.509H87.9729C90.5428 108.509 92.743 106.466 93.0926 103.758L96.3819 78.2992C96.4012 78.1449 96.4113 77.9876 96.4113 77.8324ZM91.1429 69.8211C92.5164 69.9608 93.5927 71.3099 93.5927 72.8919L93.5881 77.9007L90.2997 103.35C90.141 104.581 89.1409 105.509 87.9729 105.509H68.3734C67.3302 105.509 66.4264 104.794 66.1246 103.731L64.8001 99.0619C64.5735 98.2601 64.1693 97.5121 63.6317 96.8978L50.4686 81.8831C49.8933 81.3011 49.5772 80.514 49.5795 79.6673C49.5813 78.8216 49.9052 78.0316 50.4915 77.4437C51.0016 76.933 51.6838 76.6781 52.3857 76.6781C53.0949 76.6781 53.8235 76.9388 54.4134 77.4593L61.059 83.3226C61.4797 83.6937 62.0632 83.7718 62.5582 83.5248C63.0523 83.2777 63.3679 82.7484 63.3679 82.1673V50.4051C63.3679 49.5912 63.6927 48.8099 64.2593 48.2616C64.8336 47.7054 65.5809 47.4417 66.3608 47.5228C67.7343 47.6624 68.8101 49.0116 68.8101 50.5946V74.263C68.8101 75.0912 69.4409 75.763 70.2194 75.763C70.9979 75.763 71.6287 75.0912 71.6287 74.263V68.6385C71.6287 67.8246 71.954 67.0433 72.5201 66.495C73.0945 65.9398 73.8413 65.6786 74.6212 65.7562C75.9947 65.8954 77.071 67.2445 77.071 68.8275V74.263C77.071 75.0912 77.7022 75.763 78.4803 75.763C79.2583 75.763 79.8896 75.0912 79.8896 74.263V70.6703C79.8896 69.8563 80.2144 69.0755 80.7805 68.5272C81.3549 67.9715 82.0953 67.7083 82.8825 67.7884C84.256 67.9281 85.3314 69.2772 85.3314 70.8597V74.263C85.3314 75.0912 85.9626 75.763 86.7407 75.763C87.5187 75.763 88.15 75.0912 88.15 74.263V72.7035C88.15 71.889 88.4748 71.1078 89.0409 70.5599C89.6152 70.0047 90.3648 69.742 91.1429 69.8211Z" fill="#404151"/>
<path fill-rule="evenodd" clip-rule="evenodd" d="M67.7798 32.7147C66.6833 32.5536 65.5401 32.5511 64.4336 32.7088C63.6688 32.8236 62.9527 32.244 62.8486 31.4227C62.7449 30.6019 63.2858 29.8465 64.0574 29.7357C65.414 29.5409 66.8164 29.5438 68.167 29.743C68.9377 29.8568 69.4763 30.6141 69.3694 31.4349C69.2717 32.1854 68.6675 32.7288 67.9752 32.7288C67.9105 32.7288 67.8454 32.7245 67.7798 32.7147ZM77.949 52.8744C78.1371 52.9642 78.3335 53.0067 78.5262 53.0067C79.0638 53.0067 79.5776 52.6771 79.8125 52.1214C80.3777 50.783 80.7658 49.3675 80.9649 47.9144C81.0768 47.0946 80.5438 46.3328 79.774 46.2132C79.0097 46.0946 78.2885 46.661 78.1757 47.4808C78.0142 48.659 77.7004 49.8065 77.2416 50.891C76.9223 51.6468 77.2389 52.5345 77.949 52.8744ZM76.9003 54.5262C77.4609 55.1004 77.4784 56.0501 76.9389 56.6473C76.4627 57.1746 75.947 57.6727 75.4066 58.1278C75.1479 58.346 74.8396 58.4515 74.5331 58.4515C74.1175 58.4515 73.7055 58.2562 73.4266 57.8822C72.944 57.2323 73.0477 56.2889 73.6578 55.7752C74.0991 55.4037 74.5194 54.9979 74.9075 54.5682C75.447 53.9715 76.3397 53.9539 76.9003 54.5262ZM71.748 34.0672C72.7376 34.6185 73.6532 35.3133 74.4689 36.1327C74.7414 36.4061 75.0892 36.5413 75.436 36.5413C75.8103 36.5413 76.1837 36.3836 76.4608 36.0706C76.9948 35.4681 76.9691 34.5184 76.403 33.95C75.3993 32.9427 74.2726 32.0877 73.055 31.409C72.3669 31.0247 71.5141 31.3089 71.153 32.0423C70.792 32.7762 71.0585 33.6829 71.748 34.0672ZM52.7357 44.2059C52.6435 44.2059 52.5495 44.1961 52.4554 44.1756C51.6925 44.0116 51.1989 43.2205 51.3531 42.4085C51.6256 40.971 52.0843 39.5804 52.7156 38.2757C53.072 37.5394 53.9226 37.2489 54.6134 37.6287C55.3057 38.0077 55.5777 38.9124 55.2213 39.6488C54.7089 40.7078 54.3373 41.8363 54.1157 43.0023C53.9808 43.7142 53.3927 44.2059 52.7357 44.2059ZM52.3467 52.077C52.5807 52.6351 53.0954 52.9666 53.6349 52.9666C53.8267 52.9666 54.0216 52.9246 54.2079 52.8363C54.9185 52.4989 55.2383 51.6121 54.9213 50.8553C54.4657 49.7679 54.1547 48.6195 53.9964 47.4412C53.8858 46.6204 53.1725 46.0496 52.4018 46.1688C51.6315 46.286 51.0961 47.0457 51.2062 47.8661C51.4012 49.3192 51.7852 50.7357 52.3467 52.077ZM57.7348 36.1068C57.4632 36.3783 57.1169 36.5125 56.7714 36.5125C56.3952 36.5125 56.0204 36.3534 55.7429 36.0384C55.2107 35.4344 55.2392 34.4852 55.8071 33.9183C56.8127 32.9149 57.9413 32.0633 59.162 31.3875C59.8511 31.0057 60.7039 31.2913 61.0626 32.0267C61.4214 32.7616 61.153 33.6673 60.4621 34.0496C59.4703 34.5985 58.5528 35.2909 57.7348 36.1068ZM76.9719 39.6839C77.482 40.7454 77.8509 41.8748 78.0683 43.0409C78.2023 43.7552 78.7904 44.2494 79.4492 44.2494C79.5409 44.2494 79.6327 44.2396 79.7253 44.2201C80.4887 44.0589 80.9851 43.2694 80.8337 42.4569C80.5649 41.0189 80.1107 39.6263 79.4822 38.3177C79.1271 37.5799 78.2775 37.2899 77.5857 37.6654C76.8921 38.0423 76.6177 38.9461 76.9719 39.6839ZM55.2791 54.5257C55.8406 53.952 56.732 53.971 57.2719 54.5687C57.6596 54.9984 58.0793 55.4046 58.5198 55.7752C59.1304 56.2889 59.2336 57.2323 58.7505 57.8822C58.4725 58.2562 58.0605 58.4515 57.6444 58.4515C57.338 58.4515 57.0297 58.346 56.771 58.1278C56.2306 57.6727 55.7149 57.1746 55.2387 56.6468C54.6997 56.0492 54.7176 55.0999 55.2791 54.5257Z" fill="url(#paint0_linear)"/>
<rect x="12.0162" y="15.5503" width="28.9442" height="24" rx="6.5" stroke="#404151" stroke-width="3"/>
<rect x="12.0162" y="48.5503" width="28.9442" height="24" rx="6.5" stroke="#404151" stroke-width="3"/>
<rect x="12.0162" y="81.5503" width="28.9442" height="24" rx="6.5" stroke="url(#paint1_linear)" stroke-width="3"/>
<defs>
<linearGradient id="paint0_linear" x1="65.8117" y1="25.6025" x2="47.1203" y2="45.1117" gradientUnits="userSpaceOnUse">
<stop stop-color="#FFB500"/>
<stop offset="0.502868" stop-color="#FF8900"/>
<stop offset="1" stop-color="#FF7878"/>
</linearGradient>
<linearGradient id="paint1_linear" x1="26.1944" y1="76.3183" x2="8.96927" y2="96.9267" gradientUnits="userSpaceOnUse">
<stop stop-color="#FFB500"/>
<stop offset="0.502868" stop-color="#FF8900"/>
<stop offset="1" stop-color="#FF7878"/>
</linearGradient>
</defs>
</svg>
