<svg width="114" height="121" viewBox="0 0 114 121" fill="none" xmlns="http://www.w3.org/2000/svg">
<rect x="0.539551" y="0.050293" width="112.744" height="120" fill="white"/>
<path d="M80.8651 80.9647H36.9386V85.9718C36.0853 91.1045 31.856 95.004 26.7671 95.004C21.0628 95.004 16.4386 90.1044 16.4386 84.0604C16.4386 80.3308 18.1993 77.037 20.8882 75.0612L17.9264 70.5781C13.9057 73.5435 11.2743 78.4763 11.2743 84.0604C11.2743 93.1264 18.2106 100.476 26.7671 100.476C34.4404 100.476 40.8109 94.5651 42.0441 86.8063H80.6562C81.5505 88.4363 83.2165 89.5322 85.1241 89.5322C87.9762 89.5322 90.2884 87.0824 90.2884 84.0604C90.2884 81.0384 87.9762 78.5885 85.1241 78.5885C83.3564 78.5885 81.7961 79.5296 80.8651 80.9647Z" fill="#404151" stroke="white" stroke-width="2"/>
<path d="M22.146 81.7833C22.2353 81.5486 22.3409 81.3175 22.4632 81.0919C23.4121 79.3427 25.1299 78.3609 26.899 78.3515L46.2651 42.6498C40.5585 37.6376 38.9186 28.8255 42.7434 21.7744C47.0065 13.9152 56.4442 11.22 63.8231 15.7543C68.3534 18.5382 71.0543 23.3999 71.4781 28.5575L66.3536 29.0357C66.0718 25.5964 64.271 22.3541 61.2501 20.4977C56.3308 17.4748 50.039 19.2717 47.197 24.5111C44.4137 29.6422 45.9711 36.172 50.657 39.2792L53.4888 41.0193L31.5543 81.456C32.1776 82.8416 32.2448 84.4854 31.6506 85.9686C30.9257 88.0572 29.0371 89.5464 26.8216 89.5464C23.9795 89.5464 21.6755 87.0959 21.6755 84.073C21.6755 83.2555 21.844 82.4799 22.146 81.7833Z" fill="#404151" stroke="white" stroke-width="2"/>
<path d="M55.6553 35.4039L77.3703 75.4359L79.9564 73.8467L80.0002 73.9276C80.0216 73.9142 80.043 73.901 80.0644 73.8878C84.9871 70.8628 91.2587 72.6155 94.0724 77.8026C96.8861 82.9897 95.1764 89.6469 90.2537 92.6719C87.219 94.5368 83.6716 94.5859 80.7378 93.1339L78.5474 98.071C82.9442 100.239 88.2559 100.161 92.801 97.3679C100.185 92.8304 102.75 82.8446 98.529 75.0639C94.7183 68.0388 86.6793 65.2134 79.7189 68.0708L60.4511 32.5502C61.281 30.9393 61.3277 28.9301 60.4082 27.2349C59.0013 24.6413 55.8656 23.765 53.4042 25.2775C50.9429 26.79 50.088 30.1186 51.4949 32.7122C52.389 34.3605 53.9815 35.3152 55.6553 35.4039Z" fill="url(#paint0_linear)" stroke="white" stroke-width="2"/>
<defs>
<linearGradient id="paint0_linear" x1="75.2317" y1="14.1622" x2="30.2284" y2="44.3243" gradientUnits="userSpaceOnUse">
<stop stop-color="#FFB500"/>
<stop offset="0.502868" stop-color="#FF8900"/>
<stop offset="1" stop-color="#FF7878"/>
</linearGradient>
</defs>
</svg>
