<svg width="113" height="121" viewBox="0 0 113 121" fill="none" xmlns="http://www.w3.org/2000/svg">
<rect x="0.195312" y="0.050293" width="112.744" height="120" fill="white"/>
<path fill-rule="evenodd" clip-rule="evenodd" d="M9.69505 12.0503H103.231C106.919 12.0548 109.908 15.2359 109.912 19.1614V93.8281C109.908 97.7536 106.919 100.935 103.231 100.939H68.155V104.495H78.1767C79.0992 104.495 79.847 105.291 79.847 106.273C79.847 107.254 79.0992 108.05 78.1767 108.05H34.7493C33.8268 108.05 33.079 107.254 33.079 106.273C33.079 105.291 33.8268 104.495 34.7493 104.495H44.771V100.939H9.69505C6.00691 100.935 3.01814 97.7536 3.01392 93.8281V19.1614C3.01814 15.2359 6.00691 12.0548 9.69505 12.0503ZM48.1116 104.495H64.8144V100.939H48.1116V104.495ZM106.572 93.8281C106.57 95.7909 105.075 97.3817 103.231 97.3836H9.69505C7.85087 97.3817 6.35633 95.7909 6.35449 93.8281V92.9392H106.572V93.8281ZM6.35449 89.3836H106.572V19.1614C106.57 17.1985 105.075 15.6078 103.231 15.6058H9.69505C7.85087 15.6078 6.35633 17.1985 6.35449 19.1614V89.3836Z" fill="#404151"/>
<path fill-rule="evenodd" clip-rule="evenodd" d="M46.4413 62.717C46.4413 56.8259 50.9282 52.0503 56.463 52.0503C61.9952 52.057 66.4784 56.8287 66.4847 62.717C66.4847 68.608 61.9978 73.3836 56.463 73.3836C50.9282 73.3836 46.4413 68.608 46.4413 62.717ZM49.7819 62.717C49.7819 66.6443 52.7731 69.8281 56.463 69.8281C60.1529 69.8281 63.1441 66.6443 63.1441 62.717C63.1441 58.7896 60.1529 55.6059 56.463 55.6059C52.7731 55.6059 49.7819 58.7896 49.7819 62.717Z" fill="url(#paint0_linear)"/>
<path fill-rule="evenodd" clip-rule="evenodd" d="M89.9299 25.3727C90.3491 22.3159 92.8123 20.0495 95.7147 20.0503C98.6171 20.0495 101.08 22.3159 101.499 25.3727C101.919 28.4295 100.167 31.3506 97.385 32.2327V64.4947H78.1767V64.9519C78.1744 67.0187 76.8989 68.8392 75.0385 69.4313C74.7645 70.2928 74.4371 71.1341 74.0586 71.9495C74.9806 73.7684 74.673 76.0155 73.3017 77.4787L70.332 80.6395C68.9574 82.1006 66.8449 82.4284 65.1355 81.4459C64.37 81.8483 63.5802 82.1964 62.7714 82.4878C62.2151 84.468 60.5046 85.8256 58.5628 85.8281H54.3633C52.4214 85.8255 50.711 84.468 50.1547 82.4879C49.3459 82.1964 48.5561 81.8483 47.7905 81.4459C46.0811 82.4284 43.9685 82.1005 42.5939 80.6393L39.6242 77.4785C38.2531 76.0153 37.9456 73.7683 38.8675 71.9495C38.4889 71.1341 38.1616 70.2929 37.8876 69.4313C36.0272 68.8393 34.7517 67.0187 34.7493 64.9519V64.4947H15.5411V32.2327C12.7594 31.3499 11.0075 28.4286 11.4266 25.3715C11.8457 22.3144 14.3087 20.0476 17.2114 20.0476C20.114 20.0476 22.5771 22.3144 22.9961 25.3715C23.4152 28.4286 21.6633 31.3499 18.8816 32.2327V47.6059H28.9033V34.2725C28.9034 33.2907 29.6512 32.4948 30.5736 32.4947H54.7927V31.3438C52.0111 30.4611 50.2592 27.5397 50.6783 24.4826C51.0973 21.4255 53.5604 19.1587 56.463 19.1587C59.3657 19.1587 61.8287 21.4255 62.2478 24.4826C62.6668 27.5397 60.915 30.4611 58.1333 31.3438V32.4947H82.3524C83.2749 32.4948 84.0227 33.2907 84.0227 34.2725V47.6059H94.0444V32.2327C91.2628 31.3506 89.5108 28.4295 89.9299 25.3727ZM56.463 22.717C55.0793 22.717 53.9576 23.9109 53.9576 25.3836C53.9591 26.8557 55.0799 28.0487 56.463 28.0503C57.8467 28.0503 58.9685 26.8564 58.9685 25.3836C58.9685 23.9109 57.8467 22.717 56.463 22.717ZM14.7059 26.2725C14.7059 24.7998 15.8276 23.6059 17.2114 23.6059C18.5951 23.6059 19.7168 24.7998 19.7168 26.2725C19.7168 27.7453 18.5951 28.9392 17.2114 28.9392C15.8283 28.9376 14.7074 27.7446 14.7059 26.2725ZM74.5287 65.7421C74.7256 65.5325 74.8362 65.2483 74.8362 64.9519V60.4821C74.8362 59.8649 74.3661 59.3646 73.7863 59.3646H72.429C72.0145 57.1141 71.1819 54.9744 69.9801 53.071L70.9396 52.0498C71.1365 51.8402 71.2471 51.556 71.2471 51.2596C71.2471 50.9632 71.1365 50.679 70.9396 50.4695L67.97 47.3088C67.56 46.8724 66.8953 46.8724 66.4852 47.3088L65.5258 48.33C63.7374 47.0508 61.7271 46.1647 59.6127 45.7235V44.2789C59.6127 43.9825 59.5021 43.6983 59.3052 43.4887C59.1083 43.2791 58.8413 43.1614 58.5628 43.1614H54.3633C54.0848 43.1614 53.8178 43.2791 53.6209 43.4887C53.424 43.6983 53.3134 43.9825 53.3134 44.2789V45.7235C51.1989 46.1647 49.1886 47.0509 47.4003 48.33L46.4408 47.3088C46.0308 46.8724 45.3661 46.8724 44.956 47.3088L41.9865 50.4695C41.5765 50.9059 41.5765 51.6134 41.9865 52.0498L42.9459 53.071C41.7441 54.9744 40.9116 57.1141 40.4971 59.3646H39.1398C38.8613 59.3646 38.5943 59.4823 38.3974 59.6919C38.2005 59.9015 38.0899 60.1857 38.0899 60.4821V64.9519C38.0899 65.2483 38.2005 65.5325 38.3974 65.7421C38.5943 65.9516 38.8613 66.0694 39.1398 66.0694H40.4971C40.9116 68.3198 41.7441 70.4595 42.9459 72.363L41.9865 73.3842C41.5765 73.8206 41.5765 74.5281 41.9865 74.9645L44.956 78.1252C45.3661 78.5615 46.0308 78.5615 46.4408 78.1252L47.4003 77.104C49.1886 78.3831 51.199 79.2692 53.3134 79.7104V81.1551C53.3134 81.4514 53.424 81.7357 53.6209 81.9452C53.8178 82.1548 54.0848 82.2725 54.3633 82.2725H58.5628C58.8413 82.2725 59.1083 82.1548 59.3052 81.9452C59.5021 81.7357 59.6127 81.4514 59.6127 81.1551V79.7104C61.7271 79.2693 63.7375 78.3831 65.5258 77.104L66.4853 78.1252C66.8953 78.5615 67.56 78.5615 67.97 78.1252L70.9396 74.9645C71.1365 74.755 71.2471 74.4707 71.2471 74.1743C71.2471 73.878 71.1365 73.5937 70.9396 73.3842L69.9801 72.363C71.1819 70.4595 72.0145 68.3198 72.429 66.0693H73.7863C74.0647 66.0693 74.3318 65.9516 74.5287 65.7421ZM94.0444 60.9392H78.1767V60.4821C78.1744 58.4153 76.8989 56.5947 75.0385 56.0026C74.7647 55.1418 74.4376 54.3012 74.0595 53.4863C74.9827 51.6669 74.6746 49.4181 73.3016 47.9551L70.3322 44.7946C68.9576 43.3334 66.8449 43.0055 65.1355 43.9881C64.37 43.5856 63.5802 43.2375 62.7714 42.9461C62.2151 40.9659 60.5046 39.6084 58.5628 39.6059H54.3632C52.4214 39.6084 50.711 40.9659 50.1547 42.9461C49.3459 43.2375 48.5561 43.5856 47.7906 43.9881C46.0812 43.0056 43.9687 43.3334 42.594 44.7945L39.6243 47.9553C38.253 49.4186 37.9454 51.6657 38.8674 53.4845C38.4889 54.2999 38.1616 55.1412 37.8876 56.0027C36.0272 56.5947 34.7517 58.4153 34.7493 60.4821V60.9392H18.8816V51.1614H30.5736C31.4961 51.1614 32.2439 50.3655 32.2439 49.3836V36.0503H80.6822V49.3836C80.6822 50.3655 81.43 51.1614 82.3524 51.1614H94.0444V60.9392ZM93.2093 26.2725C93.2093 27.7453 94.331 28.9392 95.7147 28.9392C97.0978 28.9376 98.2186 27.7446 98.2201 26.2725C98.2201 24.7998 97.0984 23.6059 95.7147 23.6059C94.331 23.6059 93.2093 24.7998 93.2093 26.2725Z" fill="url(#paint1_linear)"/>
<defs>
<linearGradient id="paint0_linear" x1="56.2785" y1="49.1016" x2="42.4673" y2="62.2236" gradientUnits="userSpaceOnUse">
<stop stop-color="#FFB500"/>
<stop offset="0.502868" stop-color="#FF8900"/>
<stop offset="1" stop-color="#FF7878"/>
</linearGradient>
<linearGradient id="paint1_linear" x1="55.633" y1="9.94357" x2="14.4536" y2="66.281" gradientUnits="userSpaceOnUse">
<stop stop-color="#FFB500"/>
<stop offset="0.502868" stop-color="#FF8900"/>
<stop offset="1" stop-color="#FF7878"/>
</linearGradient>
</defs>
</svg>
