<svg width="29" height="19" viewBox="0 0 29 19" fill="none" xmlns="http://www.w3.org/2000/svg">
<path id="Path" fill-rule="evenodd" clip-rule="evenodd" d="M11.6348 12.6901L23.8126 0.863953C24.3824 0.310592 25.1549 0 25.9608 0C26.7666 0 27.5395 0.31094 28.1089 0.863953L28.1104 0.865331C28.6802 1.41869 29 2.16891 29 2.95148C29 3.73405 28.6802 4.48426 28.1104 5.03763L15.2163 17.5594C14.2665 18.4818 12.9779 19 11.6348 19C10.2917 19 9.00313 18.4818 8.05332 17.5594L0.889641 10.6026C0.319827 10.0492 0 9.29897 0 8.51641C0 7.73384 0.319827 6.98362 0.890179 6.42975C1.46053 5.87587 2.23342 5.56493 3.03925 5.56493C3.84509 5.56493 4.61761 5.87552 5.18743 6.42888L11.6348 12.6901L11.6348 12.6901Z" fill="#F7931E"/>
</svg>
