<svg width="66" height="63" viewBox="0 0 66 63" fill="none" xmlns="http://www.w3.org/2000/svg">
<g id="Group 20">
<path id="Shape" fill-rule="evenodd" clip-rule="evenodd" d="M36.6534 45.4572V50.0634V62.1792L0 55.8702V6.3072L36.6534 0V12.1158V16.7202V30.1374V32.841V45.4572ZM10.7154 42.6546L24.6366 43.956V38.6496L15.9228 38.1474V31.941L23.535 32.04V26.8344L15.9228 27.0342V21.0258L24.0354 20.4264V15.219L10.7154 16.6212V42.6546Z" fill="#046CB2"/>
<path id="Shape_2" fill-rule="evenodd" clip-rule="evenodd" d="M65.3941 46.7586V15.3198C65.3941 13.518 63.8929 12.015 62.0893 12.015H40.0591V16.6212H40.9591C41.1572 16.6212 41.3535 16.7185 41.5499 16.8158L41.5603 16.821L44.8651 20.1258C45.0649 20.3256 45.0649 20.727 44.8651 20.9268L43.6645 22.1274C43.4629 22.329 43.0633 22.329 42.8617 22.1274L41.3605 20.6262H41.2597H40.0591V29.538L40.3532 29.7935C42.52 31.6753 44.2382 33.1674 43.6645 33.7428C43.2631 34.1442 41.8609 33.4422 40.0591 32.4414V41.4522H40.6585C42.5769 40.0491 44.3198 38.0783 45.7348 36.4782C47.3496 34.6524 48.5373 33.3093 49.0717 33.8436C50.2723 34.9452 42.3613 45.3582 41.3605 45.558H40.0591V50.1642H62.0893C63.8929 50.0634 65.3941 48.5622 65.3941 46.7586ZM60.7879 41.4522V44.6562C60.7879 45.1566 60.3883 45.4572 59.9869 45.4572H56.7829H55.4815H51.7753C51.5755 45.4572 51.3739 45.3582 51.1741 45.2574L47.8693 41.9526C47.6695 41.7528 47.6695 41.3532 47.8693 41.1516L49.0717 39.951C49.2715 39.7512 49.6729 39.7512 49.8727 39.951L51.3739 41.4522H51.4747H56.7829V36.846C55.3796 34.929 53.408 33.1863 51.8072 31.7714C49.981 30.1573 48.6374 28.9697 49.1707 28.4364C50.2723 27.234 60.6889 35.145 60.8887 36.1458L60.7879 41.4522ZM60.7879 22.0284V20.727V17.523C60.7879 17.1216 60.4873 16.722 59.9869 16.722H56.7829H51.4747C50.4739 16.9218 42.5629 27.3348 43.7635 28.4364C44.2898 28.9098 45.45 27.5891 47.0277 25.7932C48.4555 24.1679 50.2253 22.1533 52.1767 20.727H56.7829V26.0334V26.1342L55.2799 27.6354C55.0801 27.8352 55.0801 28.2366 55.2799 28.4364L56.4823 29.637C56.6821 29.8386 57.0835 29.8386 57.2833 29.637L60.5881 26.334C60.6889 26.1342 60.7879 25.9326 60.7879 25.7328V22.0284Z" fill="#046CB2"/>
</g>
</svg>
