<svg width="64" height="48" viewBox="0 0 64 48" fill="none" xmlns="http://www.w3.org/2000/svg">
<g id="Group 19">
<path id="Path" opacity="0.05" d="M27.2412 32.3407L7.91284 47.2595L42.1632 47.3595L27.2412 32.3407Z" fill="#EF4223"/>
<path id="Path_2" opacity="0.9" d="M1.40232 7.00891C1.40232 6.9088 1.40232 6.9088 1.40232 7.00891C1.50132 7.10905 1.70292 7.20916 1.80192 7.30928C0.700321 6.50828 0.0991211 5.30678 0.0991211 4.00513V43.3547C0.0991211 45.5575 1.90272 47.2596 4.00512 47.2596H7.91112V13.417L1.40232 7.00891Z" fill="#EF4223"/>
<path id="Path_3" opacity="0.12" d="M53.6761 12.9161L31.6459 28.9362L27.2395 32.3405L42.1597 47.3596L55.1791 47.2595V11.8147L53.6761 12.9161Z" fill="#EF4223"/>
<path id="Path_4" opacity="0.05" d="M4.90671 0.200383C5.20731 0.300508 5.40711 0.300459 5.60871 0.400586C5.80851 0.500713 6.10911 0.600863 6.30891 0.801114L31.5449 19.2243L56.7809 0.801114C56.9825 0.700989 57.1823 0.500713 57.4829 0.400586C57.6827 0.300459 57.9833 0.200383 58.1831 0.200383C58.1831 0.200383 58.1831 0.200383 58.2839 0.200383C58.4837 0.200383 58.6835 0.10022 58.9841 0.10022H4.10571C4.10571 0.10022 4.10571 0.10022 4.20651 0.10022C4.40631 0.200345 4.70691 0.200383 4.90671 0.200383Z" fill="#EF4223"/>
<path id="Path_5" d="M62.19 6.50803C61.9884 6.80842 61.6878 7.00869 61.389 7.20894L55.179 11.7146V47.2593H59.085C60.9876 47.2593 62.5896 46.0578 62.8902 44.2557C62.991 43.9553 62.991 43.7549 62.991 43.4545V4.10498C63.09 4.906 62.7894 5.80715 62.19 6.50803Z" fill="#EF4223"/>
<path id="Path_6" opacity="0.9" d="M63.09 4.00505C63.09 3.8048 63.09 3.50441 62.991 3.30414C62.991 3.30414 62.991 3.30418 62.991 3.20405C62.8902 3.0038 62.8902 2.70341 62.7894 2.50316C62.6904 2.30289 62.5896 2.10264 62.3898 1.80226C62.289 1.60201 62.0892 1.40176 61.8894 1.30163C61.8894 1.30163 61.7886 1.30164 61.7886 1.20153C61.5888 1.1014 61.488 0.901123 61.2882 0.800996C61.2882 0.800996 61.1874 0.801022 61.1874 0.700895C60.9876 0.600768 60.7878 0.500594 60.5862 0.400468H60.4872C60.2856 0.300341 60.0858 0.300389 59.886 0.200264H59.7852C59.5854 0.200264 59.3856 0.100102 59.085 0.100102H58.9842C58.7844 0.100102 58.4838 0.100138 58.284 0.200264C58.284 0.200264 58.284 0.200264 58.1832 0.200264C57.9834 0.200264 57.6828 0.300341 57.483 0.400468C57.2814 0.500594 57.0816 0.600745 56.781 0.800996C56.682 0.800996 56.682 0.901098 56.5812 0.901098L31.4442 19.124L6.2082 0.700895C6.0084 0.500643 5.8086 0.400493 5.508 0.300366C5.3082 0.200239 5.0076 0.100102 4.806 0.100102C4.6062 0.100102 4.4064 0 4.1058 0H4.005C3.8052 0 3.6054 -2.52053e-05 3.3048 0.100102H3.204C3.0042 0.100102 2.8044 0.200239 2.6028 0.300366H2.5038C2.3022 0.400493 2.1024 0.500605 1.9026 0.600732C1.9026 0.600732 1.8018 0.600768 1.8018 0.700895C1.602 0.801022 1.5012 1.00124 1.3014 1.10136L1.2006 1.20153C1.0008 1.40178 0.9018 1.50191 0.7002 1.70216C0.6012 1.90241 0.3996 2.10261 0.3006 2.40299C0.1998 2.60324 0.099 2.90363 0.099 3.10389C0.099 3.10389 0.099 3.10393 0.099 3.20405C0.099 3.4043 0 3.60451 0 3.90488V4.00505C0 5.30668 0.6012 6.5082 1.7028 7.3092L5.0076 9.71225L7.911 11.8149L31.545 29.0366L50.7726 15.0189L55.179 11.8149L61.3872 7.3092C62.4888 6.5082 63.09 5.30668 63.09 4.00505Z" fill="#EF4223"/>
<path id="Path_7" d="M7.9127 11.7147L5.1065 9.71221L1.8017 7.30916C1.7027 7.20904 1.5011 7.10892 1.4021 7.00879L7.9127 13.4168V11.7147Z" fill="#EF4223"/>
<path id="Path_8" opacity="0.1" d="M27.2412 32.3407L7.91284 13.3168V13.4169V13.517V47.2595L27.2412 32.3407Z" fill="#EF4223"/>
<path id="Path_9" opacity="0.2" d="M7.91284 13.3166L27.2412 32.3405L31.6476 28.9362L7.91284 11.8147V13.3166Z" fill="#EF4223"/>
</g>
</svg>
