<svg width="54" height="54" viewBox="0 0 54 54" fill="none" xmlns="http://www.w3.org/2000/svg">
<g id="Group">
<path id="Shape" fill-rule="evenodd" clip-rule="evenodd" d="M19.206 25.2H5.994C2.68771 25.1901 0.00988435 22.5123 0 19.206V5.994C0.00988435 2.68771 2.68771 0.00988435 5.994 0H19.206C22.5123 0.00988435 25.1901 2.68771 25.2 5.994V19.206C25.1901 22.5123 22.5123 25.1901 19.206 25.2ZM5.994 3.6C4.67591 3.6098 3.6098 4.67591 3.6 5.994V19.206C3.6098 20.5241 4.67591 21.5902 5.994 21.6H19.206C20.5241 21.5902 21.5902 20.5241 21.6 19.206V5.994C21.5902 4.67591 20.5241 3.6098 19.206 3.6H5.994Z" fill="#2D3443"/>
<path id="Shape_2" fill-rule="evenodd" clip-rule="evenodd" d="M34.794 0H48.006C51.3123 0.00988435 53.9902 2.68771 54 5.994V19.206C53.9902 22.5123 51.3123 25.1901 48.006 25.2H34.794C31.4878 25.1901 28.8099 22.5123 28.8 19.206V5.994C28.8099 2.68771 31.4878 0.00988435 34.794 0ZM48.006 21.6C49.3241 21.5902 50.3902 20.5241 50.4 19.206V5.994C50.3902 4.67591 49.3241 3.6098 48.006 3.6H34.794C33.476 3.6098 32.4098 4.67591 32.4 5.994V19.206C32.4098 20.5241 33.476 21.5902 34.794 21.6H48.006Z" fill="#2D3443"/>
<path id="Shape_3" fill-rule="evenodd" clip-rule="evenodd" d="M19.206 54H5.994C2.68771 53.9902 0.00988435 51.3123 0 48.006V34.794C0.00988435 31.4878 2.68771 28.8099 5.994 28.8H19.206C22.5123 28.8099 25.1901 31.4878 25.2 34.794V48.006C25.1901 51.3123 22.5123 53.9902 19.206 54ZM5.994 32.4C4.67591 32.4098 3.6098 33.476 3.6 34.794V48.006C3.6098 49.3241 4.67591 50.3902 5.994 50.4H19.206C20.5241 50.3902 21.5902 49.3241 21.6 48.006V34.794C21.5902 33.476 20.5241 32.4098 19.206 32.4H5.994Z" fill="#2D3443"/>
<path id="Shape_4" fill-rule="evenodd" clip-rule="evenodd" d="M28.8 41.4C28.8 34.4413 34.4413 28.8 41.4 28.8C48.3588 28.8 54 34.4413 54 41.4C54 48.3588 48.3588 54 41.4 54C34.4413 54 28.8 48.3588 28.8 41.4ZM32.4 41.4C32.4 46.3706 36.4295 50.4 41.4 50.4C46.3706 50.4 50.4 46.3706 50.4 41.4C50.4 36.4295 46.3706 32.4 41.4 32.4C36.4295 32.4 32.4 36.4295 32.4 41.4Z" fill="#2D3443"/>
</g>
</svg>
