<svg width="65" height="66" viewBox="0 0 65 66" fill="none" xmlns="http://www.w3.org/2000/svg">
<path id="Shape" fill-rule="evenodd" clip-rule="evenodd" d="M0 58.1467L38.0246 66L38.124 0L0 7.35656V58.1467ZM46.2863 29.521C46.6086 29.3277 46.9309 29.0933 47.1992 28.8982C47.3452 28.792 47.4752 28.6974 47.5804 28.6275L65 16.8985V16.1033C65 14.9097 64.0047 13.8161 62.7106 13.8161H40.6126V26.7388C41.9067 27.6322 43.798 28.9241 44.8929 29.521L44.9866 29.5747C45.6 29.9273 45.717 29.9945 46.2863 29.521ZM46.4921 34.5853L46.4919 34.5855L46.4855 34.5903C45.6472 35.0551 45.419 34.9113 44.7406 34.4839C44.694 34.4546 44.6453 34.4239 44.5942 34.392C43.5988 33.7952 41.9067 32.7016 40.6126 31.8082V49.3017H61.5162C63.4075 49.3017 65 47.7113 65 45.8226V22.1662L47.5804 33.7952C47.2835 33.9924 46.8882 34.2886 46.4921 34.5853ZM22.2972 38.2677C20.8039 40.6532 18.1164 40.8515 16.5237 38.466C15.0307 36.2807 14.6324 33 15.4288 30.2178C16.3246 26.4404 18.7137 25.1485 20.7045 26.0419C21.7994 26.5387 22.8944 27.7323 23.3921 29.621C23.6907 30.5145 23.7902 31.5097 23.7902 32.6033C23.7902 34.4903 23.2925 36.7775 22.2972 38.2677ZM22.098 21.7677C18.0168 20.3775 13.1394 22.4646 11.2481 28.5275C9.85449 33 10.6508 38.2677 13.438 41.6467C16.7229 45.5242 22.098 45.1257 25.2833 41.3501C27.3737 38.8645 28.369 35.2854 28.369 32.3049C28.369 30.6145 28.0704 28.9241 27.5728 27.534C26.4779 24.5517 24.3874 22.5629 22.098 21.7677Z" fill="#0072C6"/>
</svg>
