<svg width="93" height="65" viewBox="0 0 93 65" fill="none" xmlns="http://www.w3.org/2000/svg">
<g id="salesforca-seeklogo.com">
<path id="Path" d="M38.3592 7.07441C41.3285 3.98056 45.4623 2.06183 50.0343 2.06183C56.1118 2.06183 61.4142 5.45076 64.2379 10.4817C66.6917 9.38529 69.4079 8.77544 72.2656 8.77544C83.2272 8.77544 92.114 17.7396 92.114 28.7969C92.114 39.8555 83.2272 48.8197 72.2656 48.8197C70.9279 48.8197 69.6203 48.6859 68.356 48.4302C65.8694 52.8657 61.1309 55.8625 55.6921 55.8625C53.4153 55.8625 51.2618 55.3366 49.3444 54.4015C46.8237 60.3308 40.9508 64.4883 34.106 64.4883C26.978 64.4883 20.903 59.978 18.5712 53.6526C17.5521 53.869 16.4964 53.9818 15.4131 53.9818C6.92631 53.9818 0.0461426 47.0308 0.0461426 38.4549C0.0461426 32.7078 3.13737 27.69 7.73027 25.0053C6.78467 22.8296 6.25875 20.4282 6.25875 17.9035C6.25875 8.04099 14.2655 0.0460434 24.1412 0.0460434C29.9393 0.0460434 35.0923 2.80283 38.3592 7.07441Z" fill="#00A1E0"/>
<path id="Path_2" d="M13.3812 33.4642C13.3235 33.615 13.4021 33.6465 13.4205 33.6727C13.5936 33.7986 13.7694 33.8891 13.9464 33.9901C14.8855 34.4885 15.772 34.634 16.6993 34.634C18.5878 34.634 19.7603 33.6294 19.7603 32.0123V31.9809C19.7603 30.4857 18.437 29.9428 17.195 29.5506L17.0337 29.4982C16.0973 29.1939 15.2894 28.9316 15.2894 28.3152V28.2824C15.2894 27.7552 15.7615 27.367 16.4934 27.367C17.3065 27.367 18.2718 27.6371 18.8934 27.9808C18.8934 27.9808 19.0757 28.0988 19.1426 27.9217C19.1793 27.8273 19.4941 26.9801 19.5269 26.8883C19.5623 26.7886 19.4993 26.7151 19.4351 26.6758C18.7256 26.2443 17.7445 25.9492 16.7294 25.9492L16.5406 25.9505C14.812 25.9505 13.6054 26.9945 13.6054 28.4909V28.5224C13.6054 30.1002 14.9366 30.6116 16.1839 30.9684L16.3845 31.03C17.2934 31.3094 18.0764 31.5494 18.0764 32.1894V32.2209C18.0764 32.8058 17.5675 33.2412 16.7465 33.2412C16.4278 33.2412 15.4114 33.2347 14.3136 32.5409C14.1812 32.4635 14.1038 32.4071 14.0015 32.3455C13.9477 32.3114 13.8126 32.2523 13.7536 32.4307L13.3812 33.4642Z" fill="white"/>
<path id="Path_3" d="M41.0291 33.4642C40.9714 33.615 41.0501 33.6465 41.0685 33.6727C41.2416 33.7986 41.4173 33.8891 41.5944 33.9901C42.5334 34.4885 43.42 34.634 44.3472 34.634C46.2358 34.634 47.4083 33.6294 47.4083 32.0123V31.9809C47.4083 30.4857 46.085 29.9428 44.843 29.5506L44.6817 29.4982C43.7452 29.1939 42.9374 28.9316 42.9374 28.3152V28.2824C42.9374 27.7552 43.4095 27.367 44.1413 27.367C44.9545 27.367 45.9197 27.6371 46.5414 27.9808C46.5414 27.9808 46.7237 28.0988 46.7906 27.9217C46.8273 27.8273 47.142 26.9801 47.1748 26.8883C47.2102 26.7886 47.1473 26.7151 47.083 26.6758C46.3735 26.2443 45.3925 25.9492 44.3774 25.9492L44.1885 25.9505C42.46 25.9505 41.2534 26.9945 41.2534 28.4909V28.5224C41.2534 30.1002 42.5846 30.6116 43.8318 30.9684L44.0325 31.03C44.9413 31.3094 45.7256 31.5494 45.7256 32.1894V32.2209C45.7256 32.8058 45.2154 33.2412 44.3944 33.2412C44.0757 33.2412 43.0593 33.2347 41.9616 32.5409C41.8291 32.4635 41.7504 32.4097 41.6508 32.3455C41.6167 32.3232 41.4567 32.2615 41.4016 32.4307L41.0291 33.4642Z" fill="white"/>
<path id="Shape" fill-rule="evenodd" clip-rule="evenodd" d="M60.7625 27.233C61.0839 27.6172 61.3252 28.0789 61.4799 28.6022C61.6347 29.1228 61.7121 29.6934 61.7121 30.2966C61.7121 30.8999 61.6347 31.4704 61.4799 31.9911C61.3252 32.5144 61.0839 32.9761 60.7625 33.3603C60.4412 33.7459 60.0333 34.0541 59.552 34.2731C59.0694 34.4922 58.5015 34.6036 57.8628 34.6036C57.2228 34.6036 56.6549 34.4922 56.1723 34.2731C55.6909 34.0541 55.2831 33.7459 54.9617 33.3603C54.6391 32.9747 54.3991 32.5131 54.243 31.9911C54.0896 31.4718 54.0122 30.9013 54.0122 30.2966C54.0122 29.692 54.0896 29.1228 54.243 28.6022C54.3991 28.0802 54.6404 27.6185 54.9604 27.233C55.2831 26.8474 55.6896 26.5379 56.1723 26.3123C56.6536 26.088 57.2228 25.9739 57.8628 25.9739C58.5015 25.9739 59.0707 26.088 59.552 26.3123C60.0347 26.5379 60.4412 26.8474 60.7625 27.233ZM59.3973 32.4397C59.733 31.9308 59.9035 31.2108 59.9035 30.2966C59.9035 29.3838 59.733 28.6651 59.3986 28.1615C59.0654 27.6631 58.5631 27.4205 57.8628 27.4205C57.1611 27.4205 56.6615 27.6631 56.3349 28.1615C56.0044 28.6651 55.8365 29.3838 55.8365 30.2966C55.8365 31.2108 56.0044 31.9321 56.3349 32.4397C56.6615 32.9446 57.1611 33.1885 57.8628 33.1885C58.5631 33.1885 59.0654 32.9433 59.3973 32.4397Z" fill="white"/>
<path id="Path_4" d="M74.4255 32.9445C74.373 32.791 74.2248 32.8487 74.2248 32.8487C73.9953 32.9366 73.7513 33.0179 73.4917 33.0586C73.2281 33.0992 72.9382 33.1202 72.6274 33.1202C71.8641 33.1202 71.2582 32.8933 70.8241 32.4448C70.3886 31.9963 70.1447 31.271 70.1473 30.29C70.1499 29.3969 70.365 28.7254 70.7519 28.2139C71.1362 27.705 71.7211 27.444 72.5015 27.444C73.152 27.444 73.6477 27.5188 74.1671 27.6827C74.1671 27.6827 74.2917 27.7365 74.3507 27.5739C74.4884 27.1909 74.5907 26.9168 74.7376 26.4958C74.7796 26.3765 74.6773 26.3253 74.6405 26.3109C74.436 26.2309 73.9533 26.101 73.5887 26.046C73.2477 25.9935 72.849 25.966 72.4057 25.966C71.7434 25.966 71.1532 26.0787 70.6483 26.3043C70.1447 26.5286 69.7171 26.8381 69.3788 27.2237C69.0404 27.6093 68.7834 28.0709 68.6115 28.5929C68.4411 29.1136 68.3545 29.6854 68.3545 30.29C68.3545 31.5976 68.7073 32.6546 69.4037 33.4284C70.1014 34.2048 71.1493 34.5996 72.5159 34.5996C73.3238 34.5996 74.1527 34.4357 74.7481 34.2009C74.7481 34.2009 74.8622 34.1458 74.8124 34.0134L74.4255 32.9445Z" fill="white"/>
<path id="Shape_2" fill-rule="evenodd" clip-rule="evenodd" d="M81.8082 27.0563C82.0259 27.2897 82.3577 27.7999 82.4915 28.3048C82.8108 29.4266 82.6771 30.4057 82.6534 30.5792C82.6517 30.5917 82.6505 30.6 82.6502 30.6039C82.6357 30.7403 82.4954 30.7429 82.4954 30.7429L77.1589 30.7377C77.193 31.5482 77.3858 32.1226 77.7805 32.5135C78.1648 32.8951 78.7786 33.1391 79.6062 33.1404C80.7613 33.1428 81.3144 32.931 81.6924 32.7863C81.7285 32.7725 81.7631 32.7593 81.7964 32.7469C81.7964 32.7469 81.9446 32.6931 81.997 32.8387L82.3459 33.8158C82.4167 33.981 82.3603 34.0388 82.3013 34.0715C81.9669 34.2565 81.1551 34.6001 79.614 34.6053C78.8652 34.6066 78.2133 34.4991 77.6769 34.2919C77.1366 34.0833 76.6854 33.7843 76.3353 33.4027C75.9838 33.0236 75.7241 32.5659 75.5615 32.0466C75.4002 31.5311 75.3188 30.958 75.3188 30.3429C75.3188 29.7383 75.3975 29.1652 75.5536 28.6393C75.7084 28.1107 75.9523 27.6452 76.2762 27.2543C76.6002 26.8622 77.0133 26.5474 77.5051 26.3166C77.9956 26.0858 78.6002 25.9743 79.2665 25.9743C79.8383 25.9743 80.3603 26.0976 80.7957 26.2838C81.1288 26.4281 81.4646 26.6864 81.8082 27.0563ZM77.6153 28.1619C77.3989 28.4911 77.2586 28.9134 77.1838 29.4209H80.9898C80.9518 28.9317 80.856 28.4911 80.6357 28.1619C80.3039 27.6635 79.8409 27.3881 79.1406 27.3881C78.4402 27.3881 77.9419 27.6622 77.6153 28.1619Z" fill="white"/>
<path id="Shape_3" fill-rule="evenodd" clip-rule="evenodd" d="M39.0702 27.0563C39.2879 27.2897 39.6184 27.7999 39.7521 28.3048C40.0727 29.4267 39.939 30.406 39.9153 30.5793C39.9136 30.5917 39.9125 30.6 39.9121 30.6039C39.8977 30.7403 39.7574 30.7429 39.7574 30.7429L34.4209 30.7377C34.455 31.5482 34.6477 32.1226 35.0425 32.5135C35.4268 32.8951 36.0406 33.1391 36.8668 33.1404C38.0237 33.1428 38.576 32.9312 38.9538 32.7866C38.9901 32.7727 39.0248 32.7593 39.0583 32.7469C39.0583 32.7469 39.2065 32.6931 39.2603 32.8387L39.6079 33.8158C39.6787 33.981 39.6223 34.0388 39.5633 34.0715C39.2288 34.2565 38.417 34.6001 36.876 34.6053C36.1271 34.6066 35.4753 34.4991 34.9389 34.2919C34.3986 34.0833 33.9474 33.7843 33.5972 33.4027C33.2457 33.0236 32.9861 32.5659 32.8234 32.0466C32.6621 31.5311 32.5808 30.958 32.5808 30.3429C32.5808 29.7383 32.6608 29.1652 32.8156 28.6393C32.9703 28.1107 33.2143 27.6452 33.5382 27.2543C33.8622 26.8622 34.2753 26.5474 34.7671 26.3166C35.2576 26.0858 35.8635 25.9743 36.5284 25.9743C37.1003 25.9743 37.6222 26.0976 38.0577 26.2838C38.3908 26.4281 38.7265 26.6864 39.0702 27.0563ZM34.8773 28.1619C34.6609 28.4911 34.5218 28.9134 34.4458 29.4209H38.2518C38.2137 28.9317 38.118 28.4911 37.899 28.1619C37.5659 27.6635 37.1029 27.3881 36.4025 27.3881C35.7022 27.3881 35.2038 27.6622 34.8773 28.1619Z" fill="white"/>
<path id="Shape_4" fill-rule="evenodd" clip-rule="evenodd" d="M24.2017 29.1408C24.5374 29.1408 24.8181 29.1499 25.0345 29.1657C25.0345 29.1657 25.4555 29.2037 25.9145 29.2693V29.0437C25.9145 28.3329 25.7663 27.9958 25.4751 27.7728C25.1761 27.5433 24.7328 27.4279 24.1558 27.4279C24.1558 27.4279 22.8574 27.4109 21.8304 27.9696C21.7832 27.9971 21.7426 28.0129 21.7426 28.0129C21.7426 28.0129 21.6154 28.0574 21.5681 27.9263L21.1904 26.9112C21.1327 26.7643 21.2376 26.6987 21.2376 26.6987C21.7177 26.3236 22.8836 26.0981 22.8836 26.0981C23.2692 26.0207 23.9131 25.9656 24.3131 25.9656C25.3794 25.9656 26.2043 26.2135 26.7643 26.704C27.327 27.1958 27.6129 27.9892 27.6129 29.0594L27.6155 33.9396C27.6155 33.9396 27.626 34.0812 27.4935 34.114C27.4935 34.114 27.2968 34.1678 27.1198 34.2097C26.9414 34.2504 26.2988 34.3802 25.7755 34.4694C25.2469 34.5599 24.7013 34.6045 24.1544 34.6045C23.6351 34.6045 23.1603 34.556 22.7419 34.4602C22.317 34.3645 21.9511 34.2058 21.6547 33.9894C21.3557 33.773 21.1209 33.4923 20.9583 33.1553C20.7957 32.8195 20.7144 32.409 20.7144 31.9369C20.7144 31.4726 20.8101 31.0582 20.999 30.7067C21.1878 30.3552 21.4488 30.0588 21.7727 29.8267C22.0954 29.5958 22.4705 29.4214 22.8875 29.3099C23.302 29.1985 23.7439 29.1408 24.2017 29.1408ZM22.6029 32.5992C22.6737 32.7067 22.7026 32.7487 22.9111 32.9153C22.9072 32.914 23.3898 33.293 24.4758 33.2274C25.2391 33.1815 25.9171 33.0359 25.9171 33.0359H25.9158V30.6096C25.9158 30.6096 25.2325 30.4969 24.4679 30.4864C23.3793 30.4719 22.9164 30.8733 22.9203 30.8719C22.599 31.0988 22.4442 31.4359 22.4442 31.9054C22.4442 32.2018 22.498 32.4353 22.6029 32.5992Z" fill="white"/>
<path id="Path_5" d="M68.0758 26.4159C68.1164 26.2953 68.0312 26.2376 67.9958 26.2244C67.9053 26.189 67.4515 26.0933 67.1013 26.071C66.4311 26.0303 66.0587 26.1431 65.7256 26.2926C65.3951 26.4421 65.0278 26.6835 64.8232 26.9576V26.3084C64.8232 26.2179 64.759 26.1457 64.6698 26.1457H63.3019C63.2127 26.1457 63.1484 26.2179 63.1484 26.3084V34.2679C63.1484 34.3571 63.2219 34.4305 63.3111 34.4305H64.7131C64.8022 34.4305 64.8744 34.3571 64.8744 34.2679V30.2914C64.8744 29.7576 64.9334 29.2252 65.0514 28.8907C65.1668 28.5602 65.3242 28.2953 65.5183 28.1051C65.7137 27.9163 65.9354 27.7838 66.178 27.7091C66.4259 27.633 66.7 27.6081 66.8941 27.6081C67.1735 27.6081 67.4803 27.6802 67.4803 27.6802C67.5826 27.692 67.6404 27.6291 67.6745 27.5359C67.7663 27.292 68.0259 26.5615 68.0758 26.4159Z" fill="white"/>
<path id="Path_6" d="M54.9157 22.7269C54.7452 22.6744 54.5904 22.639 54.3884 22.601C54.1838 22.5642 53.9399 22.5459 53.6632 22.5459C52.6979 22.5459 51.9372 22.8187 51.4034 23.3564C50.8723 23.8915 50.5116 24.7059 50.3306 25.7774L50.2651 26.1381H49.0532C49.0532 26.1381 48.9063 26.1329 48.8749 26.2929L48.6768 27.4037C48.6624 27.5086 48.7083 27.5755 48.8499 27.5755H50.029L48.8329 34.2537C48.7398 34.7914 48.6322 35.2334 48.5129 35.5692C48.3962 35.8997 48.2821 36.1475 48.1404 36.3285C48.004 36.5016 47.8755 36.6302 47.6525 36.7049C47.4689 36.7666 47.2565 36.7954 47.0243 36.7954C46.8958 36.7954 46.724 36.7744 46.5968 36.7482C46.4709 36.7233 46.404 36.6957 46.3082 36.6551C46.3082 36.6551 46.1705 36.6026 46.1154 36.7403C46.0722 36.8544 45.7574 37.7187 45.7194 37.825C45.6826 37.9312 45.7351 38.0138 45.802 38.0387C45.9594 38.0938 46.0761 38.1305 46.2899 38.1817C46.5863 38.2512 46.8368 38.2551 47.0715 38.2551C47.562 38.2551 48.0106 38.1856 48.3817 38.0518C48.7542 37.9168 49.0795 37.682 49.368 37.3646C49.6788 37.021 49.8742 36.6616 50.0605 36.1698C50.2454 35.6846 50.4041 35.0813 50.53 34.3783L51.7326 27.5755H53.4901C53.4901 27.5755 53.6383 27.5808 53.6684 27.4195L53.8678 26.3099C53.8809 26.2037 53.8363 26.1381 53.6933 26.1381H51.9871C51.9962 26.1001 52.0736 25.4994 52.269 24.9341C52.353 24.6941 52.5104 24.4987 52.6428 24.3649C52.774 24.2338 52.9248 24.1407 53.09 24.0869C53.2592 24.0318 53.452 24.0056 53.6632 24.0056C53.8232 24.0056 53.9819 24.024 54.1012 24.0489C54.2665 24.0843 54.3307 24.1026 54.374 24.1158C54.5484 24.1682 54.572 24.1171 54.6061 24.0331L55.014 22.9131C55.056 22.7925 54.9524 22.7413 54.9157 22.7269Z" fill="white"/>
<path id="Path_7" d="M31.0759 34.2682C31.0759 34.3574 31.0117 34.4296 30.9225 34.4296H29.5074C29.4182 34.4296 29.3552 34.3574 29.3552 34.2682V22.8791C29.3552 22.7899 29.4182 22.7178 29.5074 22.7178H30.9225C31.0117 22.7178 31.0759 22.7899 31.0759 22.8791V34.2682Z" fill="white"/>
</g>
</svg>
