<svg width="64" height="64" viewBox="0 0 64 64" fill="none" xmlns="http://www.w3.org/2000/svg">
<g id="slack-new-logo">
<path id="Shape" fill-rule="evenodd" clip-rule="evenodd" d="M16.9702 6.3752C16.9676 2.8574 19.8146 0.0026 23.3324 0C26.8528 0.0052 29.7024 2.86 29.6998 6.3778V12.7504H23.335C19.8172 12.7478 16.9676 9.893 16.9702 6.3752ZM6.36481 17.004H23.3324C26.8502 17.0066 29.6998 19.8614 29.6972 23.3818C29.6998 26.8996 26.8502 29.7544 23.3324 29.757H6.36221C2.84441 29.7518 -0.00518581 26.897 1.41916e-05 23.3792C-0.00258581 19.8614 2.84701 17.0066 6.36481 17.004Z" fill="#36C5F0"/>
<path id="Shape_2" fill-rule="evenodd" clip-rule="evenodd" d="M46.6674 6.3752V23.3792C46.67 26.8996 43.8204 29.7544 40.3026 29.757C36.7848 29.7518 33.9352 26.897 33.9404 23.3792V6.3752C33.9378 2.8574 36.7874 0.0026 40.3052 0C43.823 0.0052 46.67 2.86 46.6674 6.3752ZM57.2728 17.004C60.7906 17.0066 63.6402 19.8614 63.6376 23.3792C63.6402 26.8996 60.7906 29.7544 57.2728 29.757H50.908V23.3792C50.9054 19.8614 53.755 17.0066 57.2728 17.004Z" fill="#2EB67D"/>
<path id="Shape_3" fill-rule="evenodd" clip-rule="evenodd" d="M57.2727 46.7584H40.3025C36.7847 46.7558 33.9377 43.901 33.9403 40.3806C33.9377 36.8628 36.7873 34.008 40.3051 34.0054H57.2753C60.7931 34.0106 63.6427 36.8654 63.6375 40.3832C63.6401 43.901 60.7905 46.7558 57.2727 46.7584ZM46.6673 57.3898C46.6699 60.9076 43.8203 63.7624 40.3025 63.765C36.7847 63.7598 33.9351 60.905 33.9377 57.3898V51.0146H40.3025C43.8203 51.0172 46.6699 53.872 46.6673 57.3898Z" fill="#ECB22E"/>
<path id="Shape_4" fill-rule="evenodd" clip-rule="evenodd" d="M6.3648 46.7585C2.847 46.7559 -0.00259645 43.9011 3.55313e-06 40.3833C-0.00259645 36.8655 2.847 34.0107 6.3648 34.0081H12.7296V40.3833C12.7322 43.9011 9.8826 46.7559 6.3648 46.7585ZM16.9702 57.3873V40.3833C16.9676 36.8655 19.8146 34.0107 23.335 34.0107C26.8528 34.0159 29.7024 36.8707 29.6972 40.3885V57.3899C29.6998 60.9077 26.8502 63.7625 23.3324 63.7651C19.8146 63.7599 16.965 60.9051 16.9702 57.3873Z" fill="#E01E5A"/>
</g>
</svg>
