<svg width="62" height="62" viewBox="0 0 62 62" fill="none" xmlns="http://www.w3.org/2000/svg">
<g id="microsoft-teams">
<path id="Shape" fill-rule="evenodd" clip-rule="evenodd" d="M36.1738 61.217L0 54.9562V6.2608L36.1738 0V61.217ZM43.9192 21.0886C43.238 21.3798 42.5048 21.528 41.7664 21.5228C41.028 21.528 40.2974 21.3824 39.6188 21.0886C39.3731 20.9835 39.21 20.8635 39.0268 20.7288C38.834 20.5869 38.6189 20.4287 38.2616 20.254V11.7C38.618 11.5265 38.8332 11.3681 39.0265 11.2257C39.2098 11.0908 39.3733 10.9704 39.6188 10.8654C40.2948 10.5742 41.0228 10.426 41.7586 10.4312C42.4996 10.426 43.2328 10.5742 43.914 10.8654C45.2452 11.4296 46.3034 12.4904 46.8702 13.8216C47.45 15.2022 47.45 16.7544 46.8728 18.1324C46.3086 19.4636 45.2504 20.5218 43.9192 21.0886ZM52.4056 23.3792C52.9126 23.8862 53.5106 24.2892 54.171 24.57C55.549 25.1472 57.1012 25.1472 58.4818 24.57C59.813 24.0032 60.8738 22.945 61.438 21.6138C62.0152 20.2358 62.0152 18.6836 61.438 17.303C60.8712 15.9718 59.813 14.911 58.4818 14.3468C57.1038 13.7696 55.5516 13.7696 54.171 14.3468C52.8398 14.9136 51.779 15.9718 51.2148 17.303C50.6376 18.681 50.6376 20.2332 51.2148 21.6138C51.4956 22.2716 51.9012 22.8722 52.4056 23.3792ZM50.7832 28.522V45.2166H53.5652C54.522 45.2114 55.4736 45.123 56.4122 44.9462C57.356 44.7798 58.266 44.4626 59.1084 44.005C59.904 43.5734 60.5904 42.965 61.1182 42.2318C61.672 41.418 61.9502 40.4482 61.9112 39.4628V28.522H50.7832ZM38.2616 49.6314C38.561 49.6962 38.7779 49.7548 38.9671 49.8059C39.2181 49.8736 39.4203 49.9282 39.702 49.9668C40.2428 50.0448 40.7888 50.0838 41.3348 50.0864C42.1772 50.0812 43.0196 49.9928 43.8438 49.816C44.6836 49.647 45.4896 49.3324 46.2228 48.8878C46.943 48.4458 47.5488 47.8426 47.996 47.1276C48.49 46.293 48.7318 45.331 48.6954 44.3612V25.0432H38.2616V49.6314Z" fill="#5558AF"/>
<path id="Path" d="M26.4341 18.7823L9.7395 19.7989V23.6495L16.0003 23.3973V41.2515L20.1733 41.4959V23.2335L26.4341 22.9553V18.7823Z" fill="white"/>
</g>
</svg>
